<svg xmlns="http://www.w3.org/2000/svg" id="svg8" version="1.1" viewBox="0 0 828.2 278.461">
  <g transform="translate(23.158 -8.456)" id="layer1">
    <g transform="translate(-16.7 14.914)" id="g863">
      <g transform="translate(-10.375 20.129)" id="layer1-9">
        <path d="M131.837 225.28c-2.866-.32-5.055-.973-7.937-2.369-3.16-1.53-5.594-3.352-10.125-7.577-1.858-1.733-4.126-3.805-5.04-4.606-1.968-1.722-4.981-5.257-6.563-7.697-1.613-2.489-3.67-6.704-4.665-9.56-.812-2.327-.855-2.646-.84-6.158.016-4.153.226-5.012 2.802-11.48 3.058-7.678 3.505-12.964 1.685-19.94-1.868-7.154-3.575-11.13-8.888-20.703-1.777-3.202-3.617-6.774-4.09-7.938-1.589-3.918-1.923-4.548-4.574-8.63-1.627-2.506-3.346-4.782-4.473-5.922-3.004-3.04-4.315-6.537-3.908-10.42.382-3.64 2.1-7.452 3.96-8.788 1.282-.92 1.775-1.833 2.515-4.657.806-3.077.897-2.917-1.783-3.108-18.726-1.339-30.775-6.162-39.322-15.742-6.397-7.169-10.242-18.149-10.216-29.175.01-3.682.86-5.126 3.935-6.672 3.913-1.967 13.63-3.273 22.121-2.972 14.216.503 25.027 4.096 32.158 10.688 2.857 2.64 4.796 5.44 7.286 10.521 1.213 2.474 2.827 5.56 3.586 6.858l1.381 2.36 1.528-1.625c1.619-1.723 3.103-4.48 3.657-6.793.409-1.704.405-5.476-.007-7.156-.177-.724-1.034-3.103-1.904-5.286-1.924-4.826-3.357-9.14-4.565-13.736-1.84-7.004-3.168-15.036-2.991-18.09.193-3.338 2.332-6.613 5.367-8.215 1.305-.688 1.462-.706 6.9-.789 5.181-.078 5.669-.045 7.102.491 2.267.849 4.097 2.457 5.122 4.502.67 1.339.997 2.579 1.515 5.756 1.244 7.638 3.268 14.15 6.477 20.837 1.91 3.982 4.058 7.536 5.192 8.593l.698.651.92-1.058c.507-.582 1.572-2.217 2.367-3.633 3.764-6.7 6.827-15.952 7.906-23.884.58-4.272 1.07-6.11 2.029-7.607 1.152-1.801 3.178-3.519 4.92-4.17 1.388-.52 1.923-.556 7.065-.478 5.277.08 5.626.117 6.755.718 2.017 1.073 2.868 1.874 3.615 3.4.597 1.22.73 1.876.782 3.877.203 7.593-3.39 22.95-7.718 32.983-.53 1.228-1.129 2.77-1.33 3.424-1.54 5.018.09 11.387 3.968 15.499l1.728 1.831.53-.661c.292-.364 1.973-3.519 3.736-7.011 3.684-7.3 4.612-8.701 7.753-11.714 6.63-6.361 16.221-9.949 29.249-10.942 4.862-.37 11.756-.135 16.475.564 6.686.99 10.335 2.438 11.988 4.758l.794 1.114-.04 3.744c-.105 9.816-3.157 19.243-8.469 26.159-8.024 10.448-22.434 16.641-40.902 17.58-1.856.094-3.374.19-3.374.215 0 .55 1.126 3.486 2.032 5.299.884 1.769 1.454 2.566 2.217 3.1 2.43 1.703 4.184 7.88 3.44 12.113-.457 2.596-1.64 4.781-3.71 6.85-2.326 2.327-7.002 9.589-8.195 12.73-.47 1.236-2.438 5.106-4.373 8.598-5.716 10.318-6.49 12.023-8.478 18.686-2.891 9.693-2.675 14.18 1.155 23.965 2.22 5.671 2.539 7.022 2.519 10.663-.02 3.542-.656 6.046-2.57 10.125-2.49 5.304-5.304 9.087-10.008 13.458-1.78 1.654-4.423 4.12-5.874 5.479-2.953 2.766-4.761 4.165-7.303 5.65-4.325 2.528-9.725 3.675-14.695 3.122zm7.775-9.758c2.204-.899 4.677-2.637 7.571-5.321 1.455-1.35 3.745-3.4 5.09-4.555 1.343-1.156 3.11-2.836 3.925-3.735 3.216-3.543 6.006-8.67 6.92-12.72.392-1.737.39-1.996-.035-3.646-.252-.976-1.212-3.836-2.134-6.354-4.368-11.925-4.396-18.836-.128-31.698 1.583-4.772 3.117-8.049 7.348-15.692 2.063-3.727 4.095-7.645 4.517-8.705l.766-1.93-1.796-.445c-2.717-.673-6.02-2.453-8.352-4.5l-.895-.787.56-1.102c2.995-5.89 8.69-10.243 13.378-10.225 2.34.009 4.064 1.002 5.732 3.301.38.525.39.524 1.06-.106.371-.349.874-1.153 1.115-1.787.372-.971.393-1.385.14-2.648-.665-3.312-2.355-4.84-7.578-6.847-4.276-1.644-6.4-2.799-8.287-4.507-2.342-2.12-3.222-3.575-3.222-5.33 0-1.695.474-2.713 1.695-3.644 1.956-1.492 4.102-1.223 6.217.778 1.672 1.583 3.892 2.904 3.318 1.974-.099-.16-.388-1.925-.644-3.925-.256-1.999-.665-4.055-.909-4.57-.594-1.252-2.148-2.32-6.178-4.242-3.916-1.868-5.936-3.17-8.095-5.214-6.642-6.29-9.458-15.7-7.331-24.49.281-1.164 1.124-3.545 1.873-5.292 3.322-7.751 6.125-18.34 7.094-26.796l.22-1.926-3.458.074-3.46.073-.224 1.588c-1.153 8.133-2.733 14.544-5.048 20.48-3.793 9.726-8.53 16.98-12.123 18.564-2.091.92-4.864.88-6.871-.102-3.65-1.786-8.65-9.126-12.345-18.117-2.832-6.893-4.716-13.982-5.708-21.487l-.158-1.19-3.83.08-3.83.08.002.846c.005 1.536 1.049 7.658 2.016 11.826 1.17 5.042 2.802 10.18 4.998 15.743 2.526 6.396 2.638 6.916 2.623 12.17-.013 4.113-.075 4.698-.727 6.822-1.696 5.525-4.878 10.095-9.3 13.355-.87.64-3.445 2.108-5.724 3.26-4.214 2.132-6.058 3.509-6.629 4.95-.253.64-1.573 8.316-1.451 8.441.027.028.582-.186 1.233-.476.652-.29 1.899-1.228 2.772-2.087.873-.858 1.923-1.685 2.332-1.839 3.755-1.406 7.352 2.707 5.491 6.28-1.57 3.018-4.967 5.543-10.242 7.616-5.74 2.256-7.437 3.49-8.322 6.05-.374 1.08-.49 1.867-.37 2.514.215 1.158 1.06 2.573 1.759 2.948.446.239.674.107 1.566-.908 1.411-1.602 2.897-2.289 4.953-2.289 3.069 0 6.683 1.86 9.624 4.953 1.559 1.639 3.318 4.165 3.93 5.646.34.817.32.886-.42 1.496-2.79 2.298-5.994 3.997-8.647 4.585-.837.186-1.522.421-1.522.523 0 .497 2.265 5.005 5.51 10.968 4.117 7.56 5.633 10.827 7.192 15.49 2.62 7.834 3.468 13.227 2.947 18.718-.376 3.955-1.234 7.368-3.262 12.976-1.86 5.139-2.325 6.728-2.33 7.95-.004 1.458.758 3.985 1.994 6.606 2.127 4.512 4.439 7.495 8.733 11.27a502.195 502.195 0 0 1 5.421 4.877c3.5 3.193 5.907 4.808 8.384 5.624 2.193.723 7.509.578 9.566-.26zm-16.14-12.615c-1.515-.467-3.053-2.068-4.219-4.394-1.057-2.11-2.58-4.258-5.738-8.1l-2.489-3.025 1.675.178c2.743.293 8.22 1.191 9.214 1.512 1.483.479 2.58 1.485 3.367 3.09.699 1.422.734 1.674.723 5.199-.012 3.744-.383 5.97-.991 5.934-.176-.01-.87-.187-1.541-.394zm20.046.21c-.356-.575-.769-3.949-.768-6.28.001-3.902 1.047-6.272 3.276-7.425 1.178-.61 11.181-2.218 11.543-1.856.073.073-.87 1.477-2.097 3.12-3.347 4.483-5.386 7.38-5.9 8.386-.872 1.704-2.748 3.432-4.194 3.862-1.53.454-1.69.47-1.86.194zM84.038 75.46c.372-1.473 1.91-4.01 3.3-5.443.609-.63 2-1.743 3.092-2.474a119.303 119.303 0 0 0 2.047-1.389c.035-.032-.777-1.598-1.805-3.48-1.027-1.88-2.467-4.67-3.199-6.198-2.477-5.169-4.395-7.507-8.146-9.934-2.168-1.402-4.008-2.261-7.107-3.318-8.023-2.735-20.234-3.417-29.783-1.663l-2.352.432.167 2.363c.77 10.828 5.54 19.451 13.665 24.7 7.11 4.592 15.457 6.738 29.14 7.49.608.034.731-.103.98-1.086zm105.61.209c8-.32 15.953-2.19 22.132-5.205 6.115-2.984 11.267-8.109 13.824-13.753 1.501-3.314 2.678-8.08 3.078-12.467.185-2.026.18-2.048-.495-2.304-3.235-1.23-17.157-1.672-23.06-.732-8.747 1.392-14.915 4.057-19.071 8.24-1.958 1.97-2.322 2.517-4.336 6.508-1.209 2.396-2.963 5.708-3.898 7.36-.935 1.653-1.663 3.026-1.617 3.051.045.026.51.24 1.034.478 2.228 1.01 6.028 5.378 6.47 7.437.317 1.479.567 1.75 1.508 1.635.473-.058 2.467-.17 4.432-.248z" id="path847" fill="#000" stroke-width=".265"/>
      </g>
      <g id="layer2">
        <g transform="matrix(.33626 0 0 .33626 39.813 85.635)" id="g899">
          <g id="g889">
            <g id="g879">
              <path d="M375.7 15c-.9-.1-1.8-.2-2.8-.2h-61.5l-5.9-2.7c-17.4-8-36.2-12-55-12-18.8 0-37.5 4-55 12l-5.9 2.7h-61.5c-.9 0-1.9.1-2.8.2 60.4 8.3 107 60.2 107 122.9 0 17.4-3.6 34-10.1 49 17.7-9 38.7-9 56.5 0-6.5-15-10.1-31.6-10.1-49 0-62.7 46.7-114.6 107.1-122.9z" id="path877"/>
            </g>
            <g id="g883">
              <path d="M392.7 29.6c-59.7 0-108.3 48.6-108.3 108.3 0 59.7 48.6 108.2 108.3 108.2 59.7 0 108.3-48.6 108.3-108.3 0-59.7-48.6-108.2-108.3-108.2Zm0 182.1c-40.7 0-73.9-33.1-73.9-73.9C318.8 97 352 64 392.7 64s73.9 33.1 73.9 73.9c0 40.8-33.2 73.8-73.9 73.8z" id="path881"/>
            </g>
            <g id="g887">
              <path d="M108.3 29.6C48.6 29.6 0 78.1 0 137.8s48.6 108.3 108.3 108.3c59.7 0 108.3-48.6 108.3-108.3 0-59.7-48.6-108.2-108.3-108.2Zm0 182.1c-40.7 0-73.9-33.1-73.9-73.9C34.4 97 67.6 64 108.3 64s73.9 33.1 73.9 73.9c0 40.8-33.2 73.8-73.9 73.8z" id="path885"/>
            </g>
          </g>
        </g>
      </g>
    </g>
  </g>
  <g transform="translate(6.458 6.939)" id="layer3">
    <text id="text868" y="184.97" x="258.536" style="line-height:1.25;-inkscape-font-specification:Oxygen" xml:space="preserve" font-size="194.028" font-family="Oxygen" letter-spacing="0" word-spacing="0" stroke-width=".265"><tspan dy="0 0 0" style="-inkscape-font-specification:Montserrat" y="184.97" x="258.536" id="tspan866" font-style="normal" font-variant="normal" font-weight="400" font-stretch="normal" font-size="194.028" font-family="Montserrat" stroke-width=".265">Kyker</tspan></text>
  </g>
  <style type="text/css" id="style875">
    .st0{fill:#020202}
  </style>
</svg>
